<mxfile host="app.diagrams.net" agent="Mozilla/5.0 (Windows NT 10.0; Win64; x64) AppleWebKit/537.36 (KHTML, like Gecko) Chrome/128.0.0.0 Safari/537.36" version="24.7.16">
  <diagram id="HmayGj3NAPUSwT1eTOR5" name="Page-1">
    <mxGraphModel dx="2714" dy="1492" grid="0" gridSize="10" guides="1" tooltips="1" connect="1" arrows="1" fold="1" page="0" pageScale="1" pageWidth="827" pageHeight="1169" math="0" shadow="0">
      <root>
        <mxCell id="0" />
        <mxCell id="1" parent="0" />
        <mxCell id="UzmAFbhescyJkmNhEVM_-1" value="Surveyor" style="swimlane;whiteSpace=wrap;html=1;" vertex="1" parent="1">
          <mxGeometry x="-147" y="-130" width="370" height="540" as="geometry" />
        </mxCell>
        <mxCell id="UzmAFbhescyJkmNhEVM_-2" style="edgeStyle=none;curved=1;rounded=0;orthogonalLoop=1;jettySize=auto;html=1;fontSize=12;startSize=8;endSize=8;" edge="1" parent="UzmAFbhescyJkmNhEVM_-1" source="UzmAFbhescyJkmNhEVM_-3" target="UzmAFbhescyJkmNhEVM_-7">
          <mxGeometry relative="1" as="geometry" />
        </mxCell>
        <mxCell id="UzmAFbhescyJkmNhEVM_-3" value="View Upload Form In Detailed Page" style="html=1;align=center;verticalAlign=top;rounded=1;absoluteArcSize=1;arcSize=10;dashed=0;whiteSpace=wrap;" vertex="1" parent="UzmAFbhescyJkmNhEVM_-1">
          <mxGeometry x="114" y="49" width="162" height="40" as="geometry" />
        </mxCell>
        <mxCell id="UzmAFbhescyJkmNhEVM_-4" style="edgeStyle=none;curved=1;rounded=0;orthogonalLoop=1;jettySize=auto;html=1;entryX=0.5;entryY=0;entryDx=0;entryDy=0;fontSize=12;startSize=8;endSize=8;" edge="1" parent="UzmAFbhescyJkmNhEVM_-1">
          <mxGeometry relative="1" as="geometry">
            <mxPoint x="132" y="202" as="targetPoint" />
          </mxGeometry>
        </mxCell>
        <mxCell id="UzmAFbhescyJkmNhEVM_-5" style="edgeStyle=none;curved=1;rounded=0;orthogonalLoop=1;jettySize=auto;html=1;entryX=0.5;entryY=0;entryDx=0;entryDy=0;fontSize=12;startSize=8;endSize=8;" edge="1" parent="UzmAFbhescyJkmNhEVM_-1">
          <mxGeometry relative="1" as="geometry">
            <Array as="points">
              <mxPoint x="328" y="155" />
            </Array>
            <mxPoint x="148.94736842105272" y="218.94736842105272" as="sourcePoint" />
          </mxGeometry>
        </mxCell>
        <mxCell id="UzmAFbhescyJkmNhEVM_-6" value="No" style="edgeLabel;html=1;align=center;verticalAlign=middle;resizable=0;points=[];fontSize=12;" vertex="1" connectable="0" parent="UzmAFbhescyJkmNhEVM_-5">
          <mxGeometry x="-0.4746" y="24" relative="1" as="geometry">
            <mxPoint as="offset" />
          </mxGeometry>
        </mxCell>
        <mxCell id="UzmAFbhescyJkmNhEVM_-7" value="Click &#39;Submit Surveys&#39; Button" style="html=1;align=center;verticalAlign=top;rounded=1;absoluteArcSize=1;arcSize=10;dashed=0;whiteSpace=wrap;" vertex="1" parent="UzmAFbhescyJkmNhEVM_-1">
          <mxGeometry x="124" y="172" width="140" height="40" as="geometry" />
        </mxCell>
        <mxCell id="UzmAFbhescyJkmNhEVM_-11" style="edgeStyle=none;curved=1;rounded=0;orthogonalLoop=1;jettySize=auto;html=1;fontSize=12;startSize=8;endSize=8;exitX=0.5;exitY=1;exitDx=0;exitDy=0;" edge="1" parent="UzmAFbhescyJkmNhEVM_-1" source="UzmAFbhescyJkmNhEVM_-7" target="UzmAFbhescyJkmNhEVM_-16">
          <mxGeometry relative="1" as="geometry">
            <mxPoint x="194" y="257" as="targetPoint" />
          </mxGeometry>
        </mxCell>
        <mxCell id="UzmAFbhescyJkmNhEVM_-16" value="Set Job Complete For Surveyor" style="html=1;align=center;verticalAlign=top;rounded=1;absoluteArcSize=1;arcSize=10;dashed=0;whiteSpace=wrap;" vertex="1" parent="UzmAFbhescyJkmNhEVM_-1">
          <mxGeometry x="124" y="299" width="140" height="40" as="geometry" />
        </mxCell>
        <mxCell id="UzmAFbhescyJkmNhEVM_-17" style="edgeStyle=none;curved=1;rounded=0;orthogonalLoop=1;jettySize=auto;html=1;entryX=0;entryY=0.5;entryDx=0;entryDy=0;fontSize=12;startSize=8;endSize=8;" edge="1" parent="1" source="UzmAFbhescyJkmNhEVM_-18" target="UzmAFbhescyJkmNhEVM_-3">
          <mxGeometry relative="1" as="geometry" />
        </mxCell>
        <mxCell id="UzmAFbhescyJkmNhEVM_-18" value="" style="ellipse;fillColor=strokeColor;html=1;" vertex="1" parent="1">
          <mxGeometry x="-315" y="-71" width="19" height="19" as="geometry" />
        </mxCell>
        <mxCell id="UzmAFbhescyJkmNhEVM_-22" value="Property Manager" style="swimlane;whiteSpace=wrap;html=1;" vertex="1" parent="1">
          <mxGeometry x="257" y="-130" width="370" height="540" as="geometry" />
        </mxCell>
        <mxCell id="UzmAFbhescyJkmNhEVM_-25" style="edgeStyle=none;curved=1;rounded=0;orthogonalLoop=1;jettySize=auto;html=1;entryX=0.5;entryY=0;entryDx=0;entryDy=0;fontSize=12;startSize=8;endSize=8;" edge="1" parent="UzmAFbhescyJkmNhEVM_-22">
          <mxGeometry relative="1" as="geometry">
            <mxPoint x="132" y="202" as="targetPoint" />
          </mxGeometry>
        </mxCell>
        <mxCell id="UzmAFbhescyJkmNhEVM_-26" style="edgeStyle=none;curved=1;rounded=0;orthogonalLoop=1;jettySize=auto;html=1;entryX=0.5;entryY=0;entryDx=0;entryDy=0;fontSize=12;startSize=8;endSize=8;" edge="1" parent="UzmAFbhescyJkmNhEVM_-22">
          <mxGeometry relative="1" as="geometry">
            <Array as="points">
              <mxPoint x="328" y="155" />
            </Array>
            <mxPoint x="148.94736842105272" y="218.94736842105272" as="sourcePoint" />
          </mxGeometry>
        </mxCell>
        <mxCell id="UzmAFbhescyJkmNhEVM_-27" value="No" style="edgeLabel;html=1;align=center;verticalAlign=middle;resizable=0;points=[];fontSize=12;" vertex="1" connectable="0" parent="UzmAFbhescyJkmNhEVM_-26">
          <mxGeometry x="-0.4746" y="24" relative="1" as="geometry">
            <mxPoint as="offset" />
          </mxGeometry>
        </mxCell>
        <mxCell id="UzmAFbhescyJkmNhEVM_-30" value="Update UI to show surveys" style="html=1;align=center;verticalAlign=top;rounded=1;absoluteArcSize=1;arcSize=0;dashed=0;whiteSpace=wrap;" vertex="1" parent="UzmAFbhescyJkmNhEVM_-22">
          <mxGeometry x="124" y="299" width="140" height="40" as="geometry" />
        </mxCell>
        <mxCell id="UzmAFbhescyJkmNhEVM_-29" style="edgeStyle=none;curved=1;rounded=0;orthogonalLoop=1;jettySize=auto;html=1;fontSize=12;startSize=8;endSize=8;" edge="1" parent="1" source="UzmAFbhescyJkmNhEVM_-16" target="UzmAFbhescyJkmNhEVM_-30">
          <mxGeometry relative="1" as="geometry">
            <mxPoint x="451" y="127" as="targetPoint" />
            <mxPoint x="451" y="82" as="sourcePoint" />
          </mxGeometry>
        </mxCell>
        <mxCell id="UzmAFbhescyJkmNhEVM_-31" value="" style="ellipse;html=1;shape=endState;fillColor=strokeColor;" vertex="1" parent="1">
          <mxGeometry x="685" y="177" width="30" height="30" as="geometry" />
        </mxCell>
        <mxCell id="UzmAFbhescyJkmNhEVM_-32" style="edgeStyle=none;curved=1;rounded=0;orthogonalLoop=1;jettySize=auto;html=1;entryX=0;entryY=0.5;entryDx=0;entryDy=0;fontSize=12;startSize=8;endSize=8;" edge="1" parent="1" source="UzmAFbhescyJkmNhEVM_-30" target="UzmAFbhescyJkmNhEVM_-31">
          <mxGeometry relative="1" as="geometry" />
        </mxCell>
      </root>
    </mxGraphModel>
  </diagram>
</mxfile>
